<?xml version="1.0" encoding="UTF-8"?>
<svg id="_Слой_2" data-name="Слой 2" xmlns="http://www.w3.org/2000/svg" viewBox="0 0 121.85 114.08">
  <defs>
    <style>
      .cls-1 {
        fill: #7ecfe2;
      }

      .cls-2 {
        fill: #01a0c6;
      }

      .cls-3 {
        fill: #120c80;
      }

      .cls-4 {
        fill: #304a9f;
      }
    </style>
  </defs>
  <g id="_Слой_1-2" data-name="Слой 1">
    <g>
      <path class="cls-3" d="M37.78,18.08c.31,.18,.62,.35,.94,.53,.18,.1,.37,.21,.55,.32,.63,.37,1.26,.74,1.9,1.12,.13,.08,.27,.16,.4,.24,.3,.18,.6,.37,.89,.55,.22,.14,.44,.27,.66,.41,.29,.18,.58,.37,.87,.55,.23,.15,.47,.3,.7,.45,.28,.18,.57,.37,.85,.55,.26,.17,.52,.34,.78,.51,.44,.29,.87,.58,1.31,.88,.3,.21,.61,.41,.91,.62,.26,.18,.52,.36,.79,.55,.27,.19,.54,.38,.82,.57,.26,.19,.53,.37,.79,.56,.28,.2,.57,.41,.85,.61,.25,.18,.5,.36,.75,.55,.37,.27,.75,.55,1.12,.83,.3,.22,.6,.45,.9,.68,.37,.28,.73,.55,1.1,.84,.23,.18,.47,.36,.71,.55,.31,.24,.63,.49,.94,.73,.24,.19,.47,.37,.71,.56,.33,.26,.67,.53,1,.8,.21,.17,.42,.34,.64,.51,.43,.35,.86,.7,1.28,1.05,.42-.35,.85-.7,1.27-1.04,.23-.18,.45-.36,.68-.54,.32-.26,.64-.51,.96-.76,.25-.2,.49-.39,.74-.59,.3-.24,.6-.47,.9-.7,.25-.19,.49-.38,.74-.57,.34-.26,.68-.52,1.02-.78,.35-.27,.7-.53,1.05-.79,.34-.26,.69-.51,1.03-.76,.26-.19,.52-.38,.79-.57,.27-.2,.54-.39,.81-.59,.27-.2,.54-.39,.82-.58,.26-.18,.52-.37,.78-.55,.27-.19,.55-.38,.82-.57,.27-.19,.54-.37,.82-.56,.49-.33,.97-.65,1.45-.97,.24-.16,.47-.32,.71-.47,.29-.19,.59-.38,.88-.57,.22-.14,.44-.29,.67-.43,.3-.19,.6-.38,.9-.57,.21-.13,.42-.26,.62-.39,.31-.19,.62-.38,.93-.57,.08-.05,.16-.1,.24-.15,.7-.42,1.39-.83,2.08-1.23,.17-.1,.34-.2,.51-.3,.32-.18,.64-.36,.96-.54,.15-.09,.3-.17,.46-.26-8.01-7.08-15.98-13.07-23.62-17.81-7.63,4.75-15.6,10.73-23.62,17.81,.16,.09,.31,.18,.47,.26Z"/>
      <path class="cls-2" d="M103.87,38.19c-.33,.18-.66,.36-.98,.54-.17,.09-.34,.19-.51,.28-.32,.18-.65,.37-.97,.55-.16,.09-.32,.19-.48,.28-.72,.42-1.45,.85-2.18,1.29-.05,.03-.1,.06-.16,.09-.31,.19-.63,.39-.94,.58-.2,.13-.41,.25-.61,.38-.3,.19-.6,.38-.9,.57-.22,.14-.44,.28-.66,.42-.3,.19-.59,.38-.89,.58-.23,.15-.46,.31-.69,.46-.5,.33-1,.67-1.5,1.01-.26,.18-.52,.35-.78,.53-.28,.19-.55,.39-.83,.58-.26,.18-.51,.36-.77,.54-.27,.19-.55,.39-.82,.59-.27,.19-.54,.39-.8,.58-.26,.19-.53,.38-.79,.58-.34,.25-.68,.5-1.02,.76-.35,.26-.7,.52-1.05,.79-.34,.26-.68,.52-1.02,.78-.25,.19-.49,.38-.74,.57-.3,.23-.6,.47-.9,.7-.25,.2-.5,.39-.75,.59-.25,.2-.49,.4-.74,.59,.5,.53,1.01,1.07,1.51,1.62,.16,.17,.32,.34,.47,.51,.39,.43,.79,.85,1.18,1.28,.19,.2,.37,.41,.56,.62,.38,.42,.77,.85,1.15,1.28,.17,.19,.33,.37,.5,.56,.54,.61,1.08,1.22,1.63,1.84,.54,.62,1.07,1.24,1.61,1.86,.16,.19,.33,.39,.49,.58,.37,.44,.74,.87,1.11,1.31,.18,.22,.36,.43,.54,.65,.37,.45,.74,.89,1.11,1.34,.15,.18,.3,.37,.45,.55,.51,.62,1.02,1.25,1.52,1.87,.07,.09,.14,.18,.21,.27,.43,.54,.86,1.08,1.28,1.62,.17,.21,.33,.42,.49,.63,.34,.43,.67,.86,1,1.29,.17,.22,.35,.45,.52,.67,.21,.28,.43,.56,.64,.84,.01,0,.02-.02,.04-.03,.34-.27,.68-.54,1.01-.81,.23-.19,.47-.37,.7-.55,.32-.25,.64-.5,.96-.75,.23-.18,.46-.36,.69-.53,.38-.29,.76-.58,1.14-.87,.27-.21,.55-.41,.82-.62,.39-.29,.78-.58,1.18-.87,.24-.18,.49-.35,.73-.53,.29-.21,.58-.42,.87-.63,.26-.19,.52-.37,.77-.55,.28-.2,.56-.39,.84-.59,.25-.18,.51-.36,.77-.53,.33-.22,.65-.44,.97-.66,.41-.28,.81-.55,1.22-.82,.27-.18,.55-.36,.82-.54,.28-.18,.55-.36,.83-.54,.24-.16,.49-.31,.73-.47,.28-.18,.57-.36,.85-.54,.23-.14,.46-.29,.69-.43,.29-.18,.58-.36,.87-.53,.18-.11,.36-.21,.54-.32,.58-.35,1.16-.69,1.73-1.03,.2-.11,.4-.23,.59-.34,.3-.17,.61-.35,.91-.52,.19-.11,.39-.22,.58-.33,.21-.12,.43-.24,.64-.36-4.62-6.43-9.7-12.86-15.19-19.15-.69-.79-1.39-1.58-2.08-2.35-.1,.05-.2,.1-.29,.16-.14,.07-.28,.15-.42,.22Z"/>
      <path class="cls-4" d="M61.21,34.45c.15,.13,.31,.26,.46,.38,.4,.33,.79,.66,1.19,1,.21,.18,.43,.36,.64,.54,.35,.3,.69,.59,1.04,.89,.21,.18,.43,.37,.64,.56,.38,.33,.76,.67,1.14,1,.17,.15,.34,.3,.51,.45,.54,.48,1.08,.96,1.62,1.45,.15,.13,.3,.27,.44,.41,.41,.37,.81,.74,1.22,1.12,.2,.18,.4,.37,.6,.56,.37,.34,.73,.69,1.1,1.03,.2,.19,.39,.37,.59,.56,.43,.41,.85,.82,1.28,1.23,.12,.12,.25,.24,.37,.36,.55,.53,1.09,1.07,1.64,1.61,.15,.15,.3,.3,.45,.45,.41,.4,.81,.81,1.22,1.22,.19,.19,.38,.38,.57,.57,.38,.39,.76,.78,1.15,1.17,.18,.18,.35,.37,.53,.55,.48,.5,.96,1,1.43,1.5,.07,.08,.14,.15,.21,.22,.04,.04,.08,.09,.12,.13,.25-.2,.49-.4,.74-.59,.25-.2,.5-.39,.75-.59,.3-.24,.6-.47,.9-.7,.25-.19,.49-.38,.74-.57,.34-.26,.68-.52,1.02-.78,.35-.27,.7-.53,1.05-.79,.34-.25,.68-.51,1.02-.76,.26-.19,.53-.38,.79-.58,.27-.19,.54-.39,.8-.58,.27-.2,.55-.39,.82-.59,.26-.18,.51-.36,.77-.54,.28-.19,.56-.39,.83-.58,.26-.18,.52-.36,.78-.53,.5-.34,1-.68,1.5-1.01,.23-.15,.46-.31,.69-.46,.3-.19,.59-.39,.89-.58,.22-.14,.44-.28,.66-.42,.3-.19,.6-.38,.9-.57,.2-.13,.41-.25,.61-.38,.31-.19,.63-.39,.94-.58,.05-.03,.1-.06,.16-.09,.73-.44,1.46-.87,2.18-1.29,.16-.09,.32-.19,.48-.28,.33-.19,.65-.37,.97-.55,.17-.1,.34-.19,.51-.28,.33-.18,.66-.36,.98-.54,.14-.08,.28-.15,.42-.22,.1-.05,.19-.11,.29-.16-6.59-7.38-13.33-14.07-20.04-20-.15,.09-.3,.17-.46,.26-.32,.18-.64,.36-.96,.54-.17,.1-.34,.2-.51,.3-.69,.4-1.38,.81-2.08,1.23-.08,.05-.16,.1-.24,.15-.31,.19-.62,.38-.93,.57-.21,.13-.41,.26-.62,.39-.3,.19-.6,.38-.9,.57-.22,.14-.44,.28-.67,.43-.29,.19-.59,.38-.88,.57-.24,.16-.47,.31-.71,.47-.48,.32-.97,.65-1.45,.97-.27,.19-.54,.37-.82,.56-.27,.19-.55,.38-.82,.57-.26,.18-.52,.36-.78,.55-.27,.19-.54,.39-.82,.58-.27,.19-.54,.39-.81,.59-.26,.19-.52,.38-.79,.57-.34,.25-.68,.51-1.03,.76-.35,.26-.7,.52-1.05,.79-.34,.26-.68,.52-1.02,.78-.25,.19-.49,.38-.74,.57-.3,.23-.6,.47-.9,.7-.25,.19-.49,.39-.74,.59-.32,.25-.64,.51-.96,.76-.23,.18-.45,.36-.68,.54-.42,.34-.85,.69-1.27,1.04,.09,.08,.19,.16,.28,.23Z"/>
      <path class="cls-2" d="M1.23,60c.3,.17,.6,.34,.91,.52,.2,.11,.4,.23,.6,.35,.57,.33,1.14,.67,1.72,1.02,.18,.11,.37,.22,.55,.33,.29,.18,.58,.35,.86,.53,.23,.14,.46,.28,.69,.43,.28,.18,.57,.36,.85,.54,.24,.15,.49,.31,.73,.47,.28,.18,.55,.36,.83,.54,.27,.18,.55,.36,.82,.54,.41,.27,.81,.54,1.22,.82,.32,.22,.65,.44,.97,.66,.25,.18,.51,.36,.77,.53,.28,.19,.56,.39,.84,.59,.26,.18,.51,.37,.77,.55,.29,.21,.58,.42,.88,.63,.24,.18,.49,.35,.73,.53,.39,.29,.79,.58,1.18,.88,.27,.2,.54,.4,.81,.61,.38,.29,.76,.58,1.15,.87,.23,.18,.46,.35,.69,.53,.32,.25,.64,.5,.96,.75,.23,.18,.47,.37,.7,.55,.34,.27,.68,.54,1.02,.81,.01,0,.02,.02,.04,.03,.21-.28,.42-.55,.63-.83,.17-.23,.35-.45,.52-.68,.33-.43,.66-.85,1-1.28,.17-.21,.33-.43,.5-.64,.42-.53,.84-1.07,1.27-1.6,.08-.1,.15-.19,.23-.29,.5-.62,1.01-1.25,1.52-1.87l.46-.56c.37-.45,.74-.89,1.11-1.34,.18-.22,.36-.43,.54-.65,.37-.44,.74-.87,1.11-1.31,.16-.19,.33-.39,.5-.58,.53-.62,1.07-1.24,1.61-1.86,.54-.62,1.08-1.23,1.62-1.84,.17-.19,.34-.38,.51-.57,.38-.43,.76-.85,1.14-1.27,.19-.21,.38-.42,.57-.63,.39-.43,.78-.85,1.17-1.27,.16-.17,.32-.35,.48-.52,.5-.54,1.01-1.08,1.51-1.61-.25-.2-.5-.4-.75-.6-.24-.19-.48-.38-.73-.57-.31-.24-.62-.48-.93-.72-.24-.19-.48-.37-.72-.56-.36-.28-.72-.55-1.07-.82-.32-.24-.64-.48-.95-.72-.36-.27-.72-.54-1.09-.8-.26-.19-.51-.37-.77-.56-.28-.2-.55-.4-.83-.6-.27-.19-.54-.38-.8-.57-.27-.19-.53-.37-.8-.56-.27-.19-.54-.38-.81-.56-.28-.19-.57-.39-.85-.58-.47-.32-.94-.63-1.41-.94-.24-.16-.49-.32-.73-.48-.29-.19-.58-.38-.87-.56-.23-.15-.45-.29-.68-.44-.3-.19-.59-.38-.89-.56-.21-.13-.42-.26-.63-.39-.31-.19-.61-.38-.92-.57-.09-.05-.17-.1-.26-.16-.69-.42-1.38-.83-2.06-1.22-.17-.1-.34-.2-.51-.3-.32-.18-.64-.36-.96-.54-.18-.1-.35-.2-.52-.29-.32-.18-.65-.36-.97-.54-.15-.08-.29-.16-.43-.23-.09-.05-.19-.1-.28-.15-.7,.78-1.39,1.56-2.08,2.35-5.49,6.29-10.57,12.71-15.19,19.15,.21,.12,.43,.24,.64,.36,.19,.11,.39,.22,.59,.33Z"/>
      <path class="cls-1" d="M78.93,92.77c-.17-.22-.34-.43-.51-.64-.42-.53-.84-1.06-1.26-1.59-.08-.1-.16-.2-.23-.29-.5-.62-1.01-1.24-1.52-1.87-.15-.19-.31-.37-.46-.56-.37-.45-.74-.89-1.11-1.34-.18-.22-.36-.43-.54-.65-.37-.44-.74-.87-1.11-1.31-.16-.19-.33-.39-.5-.58-.53-.62-1.07-1.24-1.61-1.86-.54-.62-1.08-1.23-1.62-1.84-.17-.19-.34-.38-.5-.56-.38-.43-.76-.85-1.15-1.28-.19-.21-.37-.41-.56-.62-.39-.43-.78-.85-1.17-1.28-.16-.17-.32-.35-.48-.52-.54-.59-1.09-1.17-1.64-1.74-.08-.08-.15-.16-.23-.23-.47-.5-.95-.99-1.42-1.48-.13-.14-.26-.27-.39-.4-.13,.14-.27,.27-.4,.41-.47,.48-.93,.97-1.4,1.46-.08,.09-.16,.17-.25,.26-.54,.57-1.09,1.15-1.63,1.74-.16,.17-.32,.35-.49,.53-.39,.42-.78,.84-1.17,1.27-.19,.21-.38,.41-.57,.62-.38,.42-.76,.85-1.15,1.27-.17,.19-.34,.38-.5,.56-.54,.61-1.09,1.22-1.62,1.84-.54,.62-1.07,1.24-1.61,1.86-.17,.19-.33,.39-.49,.58-.37,.44-.75,.88-1.11,1.32-.18,.21-.36,.43-.54,.64-.38,.45-.75,.9-1.12,1.35-.15,.18-.3,.36-.45,.55-.51,.62-1.02,1.25-1.52,1.87-.07,.09-.14,.18-.21,.26-.43,.54-.86,1.08-1.29,1.62-.16,.21-.33,.42-.49,.62-.09,.11-.17,.22-.26,.34,.12,.13,.24,.25,.37,.38,.48,.49,.96,.99,1.43,1.5,.07,.08,.14,.15,.21,.23,.55,.58,1.09,1.16,1.64,1.75,.16,.17,.32,.34,.47,.51,.39,.43,.79,.85,1.18,1.28,.19,.2,.37,.41,.56,.61,.38,.42,.77,.85,1.15,1.28,.17,.19,.33,.37,.5,.56,.54,.61,1.08,1.22,1.62,1.84,.54,.62,1.07,1.24,1.61,1.86,.17,.2,.33,.39,.5,.59,.37,.44,.74,.87,1.11,1.31,.18,.22,.36,.43,.54,.65,.37,.45,.74,.89,1.11,1.34,.15,.18,.31,.37,.46,.55,.51,.62,1.02,1.24,1.52,1.87,.08,.1,.15,.19,.23,.29,.43,.53,.85,1.07,1.27,1.6,.17,.21,.33,.43,.5,.64,.09,.12,.19,.24,.28,.36,.09-.12,.19-.24,.28-.36,.17-.21,.33-.42,.5-.64,.42-.54,.85-1.07,1.28-1.61,.07-.09,.15-.19,.22-.28,.5-.62,1.01-1.25,1.52-1.87,.15-.18,.3-.37,.46-.55,.37-.45,.74-.89,1.11-1.34,.18-.22,.36-.43,.54-.65,.37-.44,.74-.87,1.11-1.31,.17-.2,.33-.39,.5-.59,.53-.62,1.07-1.24,1.61-1.86,.54-.62,1.08-1.23,1.62-1.84,.17-.19,.33-.37,.5-.56,.38-.43,.77-.86,1.15-1.28,.19-.2,.37-.41,.56-.61,.39-.43,.78-.86,1.18-1.28,.16-.17,.32-.34,.47-.51,.55-.59,1.09-1.17,1.64-1.75,.07-.08,.14-.15,.21-.23,.48-.5,.95-1,1.43-1.5,.12-.13,.24-.25,.37-.38-.08-.11-.17-.22-.25-.32Z"/>
      <path class="cls-4" d="M17.98,38.2c.32,.18,.65,.35,.97,.54,.17,.1,.35,.19,.52,.29,.32,.18,.64,.36,.96,.54,.17,.1,.34,.2,.51,.3,.68,.4,1.37,.8,2.06,1.22,.09,.05,.17,.1,.26,.16,.31,.19,.61,.38,.92,.57,.21,.13,.42,.26,.63,.39,.3,.19,.59,.37,.89,.56,.23,.14,.45,.29,.68,.44,.29,.19,.58,.37,.87,.56,.24,.16,.49,.32,.73,.48,.47,.31,.94,.63,1.41,.94,.28,.19,.56,.38,.85,.58,.27,.19,.54,.37,.81,.56,.26,.19,.53,.37,.8,.56,.27,.19,.54,.38,.8,.57,.28,.2,.55,.4,.83,.6,.26,.19,.51,.37,.77,.56,.36,.27,.72,.53,1.09,.8,.32,.24,.64,.48,.95,.72,.36,.27,.71,.54,1.07,.82,.24,.18,.48,.37,.72,.56,.31,.24,.62,.48,.93,.72,.24,.19,.48,.38,.73,.57,.25,.2,.5,.4,.75,.6,.04-.04,.08-.08,.12-.13,.08-.09,.16-.17,.24-.25,.47-.49,.93-.98,1.4-1.46,.18-.19,.37-.38,.56-.57,.37-.38,.74-.76,1.12-1.14,.2-.2,.39-.4,.59-.6,.39-.4,.79-.79,1.18-1.19,.16-.16,.32-.32,.48-.48,.54-.54,1.08-1.07,1.63-1.59,.14-.13,.28-.27,.41-.4,.41-.4,.82-.8,1.24-1.19,.2-.19,.41-.39,.61-.58,.36-.34,.71-.67,1.07-1,.21-.19,.42-.39,.63-.58,.39-.36,.78-.72,1.17-1.08,.16-.15,.32-.3,.49-.45,.53-.48,1.07-.96,1.6-1.44,.19-.17,.37-.33,.56-.49,.36-.32,.73-.64,1.09-.96,.22-.2,.45-.39,.67-.58,.33-.29,.67-.58,1-.86,.22-.19,.45-.38,.67-.57,.38-.32,.75-.63,1.13-.95,.17-.14,.34-.29,.52-.43,.09-.08,.18-.15,.28-.23-.43-.35-.86-.71-1.28-1.05-.21-.17-.42-.34-.64-.51-.33-.27-.67-.53-1-.8-.24-.19-.47-.38-.71-.56-.31-.25-.63-.49-.94-.73-.23-.18-.47-.37-.71-.55-.37-.28-.73-.56-1.1-.84-.3-.23-.6-.45-.9-.68-.38-.28-.75-.56-1.12-.83-.25-.18-.5-.36-.75-.55-.28-.21-.57-.41-.85-.61-.26-.19-.53-.38-.79-.56-.27-.19-.54-.38-.82-.57-.26-.18-.52-.37-.79-.55-.31-.21-.61-.42-.91-.62-.44-.3-.87-.59-1.31-.88-.26-.17-.52-.34-.78-.51-.28-.19-.57-.37-.85-.55-.23-.15-.47-.3-.7-.45-.29-.19-.58-.37-.87-.55-.22-.14-.44-.27-.66-.41-.3-.18-.6-.37-.89-.55-.13-.08-.27-.16-.4-.24-.64-.38-1.27-.76-1.9-1.12-.18-.11-.37-.21-.55-.32-.31-.18-.62-.36-.94-.53-.16-.09-.31-.18-.47-.26-6.71,5.93-13.44,12.62-20.04,20,.09,.05,.19,.1,.28,.15,.14,.08,.29,.16,.43,.23Z"/>
    </g>
  </g>
</svg>